<?xml version="1.0" encoding="UTF-8" standalone="no"?>
<!-- Created with Inkscape (http://www.inkscape.org/) -->

<svg
   xmlns:dc="http://purl.org/dc/elements/1.1/"
   xmlns:cc="http://creativecommons.org/ns#"
   xmlns:rdf="http://www.w3.org/1999/02/22-rdf-syntax-ns#"
   xmlns:svg="http://www.w3.org/2000/svg"
   xmlns="http://www.w3.org/2000/svg"
   xmlns:sodipodi="http://sodipodi.sourceforge.net/DTD/sodipodi-0.dtd"
   xmlns:inkscape="http://www.inkscape.org/namespaces/inkscape"
   width="481.48492"
   height="424.31592"
   viewBox="0 0 127.39288 112.26692"
   version="1.1"
   id="svg8"
   inkscape:version="0.92.5 (2060ec1f9f, 2020-04-08)"
   sodipodi:docname="censuras.svg"
   inkscape:export-filename="/home/walmes/Projects/epidemioR/101_camilla/censuras.png"
   inkscape:export-xdpi="100"
   inkscape:export-ydpi="100">
  <defs
     id="defs2">
    <marker
       inkscape:isstock="true"
       style="overflow:visible"
       id="marker6338"
       refX="0"
       refY="0"
       orient="auto"
       inkscape:stockid="Arrow1Mend">
      <path
         transform="matrix(-0.4,0,0,-0.4,-4,0)"
         style="fill:#000000;fill-opacity:1;fill-rule:evenodd;stroke:#000000;stroke-width:1.00000003pt;stroke-opacity:1"
         d="M 0,0 5,-5 -12.5,0 5,5 Z"
         id="path6336"
         inkscape:connector-curvature="0" />
    </marker>
    <marker
       inkscape:isstock="true"
       style="overflow:visible"
       id="marker6232"
       refX="0"
       refY="0"
       orient="auto"
       inkscape:stockid="Arrow1Mend">
      <path
         transform="matrix(-0.4,0,0,-0.4,-4,0)"
         style="fill:#000000;fill-opacity:1;fill-rule:evenodd;stroke:#000000;stroke-width:1.00000003pt;stroke-opacity:1"
         d="M 0,0 5,-5 -12.5,0 5,5 Z"
         id="path6230"
         inkscape:connector-curvature="0" />
    </marker>
    <marker
       inkscape:isstock="true"
       style="overflow:visible"
       id="marker6132"
       refX="0"
       refY="0"
       orient="auto"
       inkscape:stockid="Arrow1Mend">
      <path
         transform="matrix(-0.4,0,0,-0.4,-4,0)"
         style="fill:#000000;fill-opacity:1;fill-rule:evenodd;stroke:#000000;stroke-width:1.00000003pt;stroke-opacity:1"
         d="M 0,0 5,-5 -12.5,0 5,5 Z"
         id="path6130"
         inkscape:connector-curvature="0" />
    </marker>
    <marker
       inkscape:stockid="Arrow1Mend"
       orient="auto"
       refY="0"
       refX="0"
       id="marker6032"
       style="overflow:visible"
       inkscape:isstock="true"
       inkscape:collect="always">
      <path
         id="path6030"
         d="M 0,0 5,-5 -12.5,0 5,5 Z"
         style="fill:#000000;fill-opacity:1;fill-rule:evenodd;stroke:#000000;stroke-width:1.00000003pt;stroke-opacity:1"
         transform="matrix(-0.4,0,0,-0.4,-4,0)"
         inkscape:connector-curvature="0" />
    </marker>
    <marker
       inkscape:stockid="Arrow1Mend"
       orient="auto"
       refY="0"
       refX="0"
       id="Arrow1Mend"
       style="overflow:visible"
       inkscape:isstock="true">
      <path
         id="path1391"
         d="M 0,0 5,-5 -12.5,0 5,5 Z"
         style="fill:#ff0000;fill-opacity:1;fill-rule:evenodd;stroke:#ff0000;stroke-width:1.00000003pt;stroke-opacity:1"
         transform="matrix(-0.4,0,0,-0.4,-4,0)"
         inkscape:connector-curvature="0" />
    </marker>
    <inkscape:path-effect
       effect="skeletal"
       id="path-effect2385"
       is_visible="true"
       pattern="#path2383"
       copytype="repeated"
       prop_scale="1"
       scale_y_rel="false"
       spacing="0"
       normal_offset="0"
       tang_offset="0"
       prop_units="false"
       vertical_pattern="false"
       fuse_tolerance="0" />
    <inkscape:path-effect
       effect="spiro"
       id="path-effect2381"
       is_visible="true" />
    <marker
       inkscape:stockid="DotL"
       orient="auto"
       refY="0"
       refX="0"
       id="DotL"
       style="overflow:visible"
       inkscape:isstock="true">
      <path
         id="path878"
         d="m -2.5,-1 c 0,2.76 -2.24,5 -5,5 -2.76,0 -5,-2.24 -5,-5 0,-2.76 2.24,-5 5,-5 2.76,0 5,2.24 5,5 z"
         style="fill:#000000;fill-opacity:1;fill-rule:evenodd;stroke:#000000;stroke-width:1.00000003pt;stroke-opacity:1"
         transform="matrix(0.8,0,0,0.8,5.92,0.8)"
         inkscape:connector-curvature="0" />
    </marker>
    <marker
       inkscape:stockid="Arrow1Lend"
       orient="auto"
       refY="0"
       refX="0"
       id="marker1808"
       style="overflow:visible"
       inkscape:isstock="true">
      <path
         id="path1806"
         d="M 0,0 5,-5 -12.5,0 5,5 Z"
         style="fill:#000000;fill-opacity:1;fill-rule:evenodd;stroke:#000000;stroke-width:1.00000003pt;stroke-opacity:1"
         transform="matrix(-0.8,0,0,-0.8,-10,0)"
         inkscape:connector-curvature="0" />
    </marker>
    <marker
       inkscape:stockid="Arrow1Lend"
       orient="auto"
       refY="0"
       refX="0"
       id="Arrow1Lend"
       style="overflow:visible"
       inkscape:isstock="true">
      <path
         id="path820"
         d="M 0,0 5,-5 -12.5,0 5,5 Z"
         style="fill:#000000;fill-opacity:1;fill-rule:evenodd;stroke:#000000;stroke-width:1.00000003pt;stroke-opacity:1"
         transform="matrix(-0.8,0,0,-0.8,-10,0)"
         inkscape:connector-curvature="0" />
    </marker>
    <marker
       inkscape:stockid="Arrow1Lend"
       orient="auto"
       refY="0"
       refX="0"
       id="Arrow1Lend-2"
       style="overflow:visible"
       inkscape:isstock="true">
      <path
         inkscape:connector-curvature="0"
         id="path820-0"
         d="M 0,0 5,-5 -12.5,0 5,5 Z"
         style="fill:#000000;fill-opacity:1;fill-rule:evenodd;stroke:#000000;stroke-width:1.00000003pt;stroke-opacity:1"
         transform="matrix(-0.8,0,0,-0.8,-10,0)" />
    </marker>
    <marker
       inkscape:stockid="Arrow1Lend"
       orient="auto"
       refY="0"
       refX="0"
       id="marker1808-2"
       style="overflow:visible"
       inkscape:isstock="true">
      <path
         inkscape:connector-curvature="0"
         id="path1806-9"
         d="M 0,0 5,-5 -12.5,0 5,5 Z"
         style="fill:#000000;fill-opacity:1;fill-rule:evenodd;stroke:#000000;stroke-width:1.00000003pt;stroke-opacity:1"
         transform="matrix(-0.8,0,0,-0.8,-10,0)" />
    </marker>
    <inkscape:path-effect
       effect="skeletal"
       id="path-effect2385-3"
       is_visible="true"
       pattern="#path2383"
       copytype="repeated"
       prop_scale="1"
       scale_y_rel="false"
       spacing="0"
       normal_offset="0"
       tang_offset="0"
       prop_units="false"
       vertical_pattern="false"
       fuse_tolerance="0" />
    <marker
       inkscape:stockid="Arrow1Lend"
       orient="auto"
       refY="0"
       refX="0"
       id="Arrow1Lend-2-5"
       style="overflow:visible"
       inkscape:isstock="true">
      <path
         inkscape:connector-curvature="0"
         id="path820-0-8"
         d="M 0,0 5,-5 -12.5,0 5,5 Z"
         style="fill:#000000;fill-opacity:1;fill-rule:evenodd;stroke:#000000;stroke-width:1.00000003pt;stroke-opacity:1"
         transform="matrix(-0.8,0,0,-0.8,-10,0)" />
    </marker>
    <inkscape:path-effect
       effect="skeletal"
       id="path-effect2385-3-1"
       is_visible="true"
       pattern="#path2383"
       copytype="repeated"
       prop_scale="1"
       scale_y_rel="false"
       spacing="0"
       normal_offset="0"
       tang_offset="0"
       prop_units="false"
       vertical_pattern="false"
       fuse_tolerance="0" />
    <marker
       inkscape:stockid="Arrow1Lend"
       orient="auto"
       refY="0"
       refX="0"
       id="Arrow1Lend-2-5-2"
       style="overflow:visible"
       inkscape:isstock="true">
      <path
         inkscape:connector-curvature="0"
         id="path820-0-8-0"
         d="M 0,0 5,-5 -12.5,0 5,5 Z"
         style="fill:#000000;fill-opacity:1;fill-rule:evenodd;stroke:#000000;stroke-width:1.00000003pt;stroke-opacity:1"
         transform="matrix(-0.8,0,0,-0.8,-10,0)" />
    </marker>
    <marker
       inkscape:stockid="Arrow1Mend"
       orient="auto"
       refY="0"
       refX="0"
       id="Arrow1Mend-3"
       style="overflow:visible"
       inkscape:isstock="true">
      <path
         inkscape:connector-curvature="0"
         id="path1391-6"
         d="M 0,0 5,-5 -12.5,0 5,5 Z"
         style="fill:#ff0000;fill-opacity:1;fill-rule:evenodd;stroke:#ff0000;stroke-width:1.00000003pt;stroke-opacity:1"
         transform="matrix(-0.4,0,0,-0.4,-4,0)" />
    </marker>
    <marker
       inkscape:stockid="Arrow1Mend"
       orient="auto"
       refY="0"
       refX="0"
       id="Arrow1Mend-3-5"
       style="overflow:visible"
       inkscape:isstock="true">
      <path
         inkscape:connector-curvature="0"
         id="path1391-6-3"
         d="M 0,0 5,-5 -12.5,0 5,5 Z"
         style="fill:#ff0000;fill-opacity:1;fill-rule:evenodd;stroke:#ff0000;stroke-width:1.00000003pt;stroke-opacity:1"
         transform="matrix(-0.4,0,0,-0.4,-4,0)" />
    </marker>
    <marker
       inkscape:stockid="Arrow1Mend"
       orient="auto"
       refY="0"
       refX="0"
       id="Arrow1Mend-3-5-6"
       style="overflow:visible"
       inkscape:isstock="true">
      <path
         inkscape:connector-curvature="0"
         id="path1391-6-3-2"
         d="M 0,0 5,-5 -12.5,0 5,5 Z"
         style="fill:#ff0000;fill-opacity:1;fill-rule:evenodd;stroke:#ff0000;stroke-width:1.00000003pt;stroke-opacity:1"
         transform="matrix(-0.4,0,0,-0.4,-4,0)" />
    </marker>
    <marker
       inkscape:stockid="Arrow1Mend"
       orient="auto"
       refY="0"
       refX="0"
       id="Arrow1Mend-3-5-1"
       style="overflow:visible"
       inkscape:isstock="true">
      <path
         inkscape:connector-curvature="0"
         id="path1391-6-3-27"
         d="M 0,0 5,-5 -12.5,0 5,5 Z"
         style="fill:#ff0000;fill-opacity:1;fill-rule:evenodd;stroke:#ff0000;stroke-width:1.00000003pt;stroke-opacity:1"
         transform="matrix(-0.4,0,0,-0.4,-4,0)" />
    </marker>
    <marker
       inkscape:stockid="Arrow1Mend"
       orient="auto"
       refY="0"
       refX="0"
       id="Arrow1Mend-9"
       style="overflow:visible"
       inkscape:isstock="true">
      <path
         inkscape:connector-curvature="0"
         id="path1391-3"
         d="M 0,0 5,-5 -12.5,0 5,5 Z"
         style="fill:#ff0000;fill-opacity:1;fill-rule:evenodd;stroke:#ff0000;stroke-width:1.00000003pt;stroke-opacity:1"
         transform="matrix(-0.4,0,0,-0.4,-4,0)" />
    </marker>
    <marker
       inkscape:stockid="Arrow1Mend"
       orient="auto"
       refY="0"
       refX="0"
       id="Arrow1Mend-3-2"
       style="overflow:visible"
       inkscape:isstock="true">
      <path
         inkscape:connector-curvature="0"
         id="path1391-6-8"
         d="M 0,0 5,-5 -12.5,0 5,5 Z"
         style="fill:#ff0000;fill-opacity:1;fill-rule:evenodd;stroke:#ff0000;stroke-width:1.00000003pt;stroke-opacity:1"
         transform="matrix(-0.4,0,0,-0.4,-4,0)" />
    </marker>
    <inkscape:path-effect
       effect="skeletal"
       id="path-effect2385-9"
       is_visible="true"
       pattern="#path2383"
       copytype="repeated"
       prop_scale="1"
       scale_y_rel="false"
       spacing="0"
       normal_offset="0"
       tang_offset="0"
       prop_units="false"
       vertical_pattern="false"
       fuse_tolerance="0" />
    <marker
       inkscape:stockid="Arrow1Mend"
       orient="auto"
       refY="0"
       refX="0"
       id="marker6032-7"
       style="overflow:visible"
       inkscape:isstock="true"
       inkscape:collect="always">
      <path
         inkscape:connector-curvature="0"
         id="path6030-3"
         d="M 0,0 5,-5 -12.5,0 5,5 Z"
         style="fill:#000000;fill-opacity:1;fill-rule:evenodd;stroke:#000000;stroke-width:1.00000003pt;stroke-opacity:1"
         transform="matrix(-0.4,0,0,-0.4,-4,0)" />
    </marker>
    <marker
       inkscape:stockid="Arrow1Mend"
       orient="auto"
       refY="0"
       refX="0"
       id="Arrow1Mend-3-2-5"
       style="overflow:visible"
       inkscape:isstock="true">
      <path
         inkscape:connector-curvature="0"
         id="path1391-6-8-0"
         d="M 0,0 5,-5 -12.5,0 5,5 Z"
         style="fill:#ff0000;fill-opacity:1;fill-rule:evenodd;stroke:#ff0000;stroke-width:1.00000003pt;stroke-opacity:1"
         transform="matrix(-0.4,0,0,-0.4,-4,0)" />
    </marker>
    <inkscape:path-effect
       effect="skeletal"
       id="path-effect2385-9-3"
       is_visible="true"
       pattern="#path2383"
       copytype="repeated"
       prop_scale="1"
       scale_y_rel="false"
       spacing="0"
       normal_offset="0"
       tang_offset="0"
       prop_units="false"
       vertical_pattern="false"
       fuse_tolerance="0" />
    <marker
       inkscape:stockid="Arrow1Mend"
       orient="auto"
       refY="0"
       refX="0"
       id="marker6032-7-6"
       style="overflow:visible"
       inkscape:isstock="true"
       inkscape:collect="always">
      <path
         inkscape:connector-curvature="0"
         id="path6030-3-1"
         d="M 0,0 5,-5 -12.5,0 5,5 Z"
         style="fill:#000000;fill-opacity:1;fill-rule:evenodd;stroke:#000000;stroke-width:1.00000003pt;stroke-opacity:1"
         transform="matrix(-0.4,0,0,-0.4,-4,0)" />
    </marker>
    <marker
       inkscape:stockid="Arrow1Mend"
       orient="auto"
       refY="0"
       refX="0"
       id="Arrow1Mend-3-2-5-6"
       style="overflow:visible"
       inkscape:isstock="true">
      <path
         inkscape:connector-curvature="0"
         id="path1391-6-8-0-5"
         d="M 0,0 5,-5 -12.5,0 5,5 Z"
         style="fill:#ff0000;fill-opacity:1;fill-rule:evenodd;stroke:#ff0000;stroke-width:1.00000003pt;stroke-opacity:1"
         transform="matrix(-0.4,0,0,-0.4,-4,0)" />
    </marker>
  </defs>
  <sodipodi:namedview
     id="base"
     pagecolor="#ffffff"
     bordercolor="#666666"
     borderopacity="1.0"
     inkscape:pageopacity="1"
     inkscape:pageshadow="2"
     inkscape:zoom="1.4142136"
     inkscape:cx="337.29242"
     inkscape:cy="154.97571"
     inkscape:document-units="mm"
     inkscape:current-layer="g8190"
     showgrid="false"
     fit-margin-top="5"
     fit-margin-left="5"
     fit-margin-right="5"
     fit-margin-bottom="5"
     inkscape:window-width="1920"
     inkscape:window-height="1051"
     inkscape:window-x="1920"
     inkscape:window-y="0"
     inkscape:window-maximized="1"
     units="px" />
  <metadata
     id="metadata5">
    <rdf:RDF>
      <cc:Work
         rdf:about="">
        <dc:format>image/svg+xml</dc:format>
        <dc:type
           rdf:resource="http://purl.org/dc/dcmitype/StillImage" />
        <dc:title></dc:title>
      </cc:Work>
    </rdf:RDF>
  </metadata>
  <g
     inkscape:label="Layer 1"
     inkscape:groupmode="layer"
     id="layer1"
     transform="translate(0.88828602,-34.726059)">
    <g
       id="g8209"
       transform="translate(0,-8.8171752)">
      <path
         style="fill:#808080;stroke:#808080;stroke-width:0.00943557"
         inkscape:connector-curvature="0"
         d="m 67.718765,83.58229 c -0.511691,-0.998378 -1.524694,-1.67387 -2.684608,-1.67387 -1.159915,0 -2.1732,0.675964 -2.684608,1.673964 a 0.30524063,0.30524063 0 0 0 0,0.275424 c 0.511691,0.998378 1.524693,1.67387 2.684608,1.67387 1.159914,0 2.1732,-0.675964 2.684608,-1.673964 a 0.30524063,0.30524063 0 0 0 0,-0.275424 z m -2.684608,1.496481 a 1.3587218,1.3587218 0 1 1 1.358722,-1.358722 1.3580613,1.3580613 0 0 1 -1.358722,1.358722 z m 0,-2.264536 a 0.89930402,0.89930402 0 0 0 -0.238814,0.03576 0.45149193,0.45149193 0 0 1 -0.63124,0.63124 0.90373876,0.90373876 0 1 0 0.870054,-0.667 z"
         id="path1776-9" />
      <text
         xml:space="preserve"
         style="font-style:normal;font-variant:normal;font-weight:normal;font-stretch:normal;font-size:3.52777767px;font-family:'Helvetica Condensed';-inkscape-font-specification:'Helvetica Condensed';font-variant-ligatures:normal;font-variant-caps:normal;font-variant-numeric:normal;text-align:start;letter-spacing:0px;word-spacing:0px;writing-mode:lr-tb;text-anchor:start;fill:#000000;fill-opacity:1;stroke:none;stroke-width:0.26458332px;stroke-linecap:butt;stroke-linejoin:miter;stroke-opacity:1"
         x="59.005394"
         y="97.64579"
         id="text2184-1"><tspan
           sodipodi:role="line"
           id="tspan2182-0"
           x="59.005394"
           y="97.64579"
           style="font-size:3.52777767px;stroke-width:0.26458332px">Desfecho ocorreu à direita, após avaliação.</tspan></text>
      <text
         xml:space="preserve"
         style="font-style:normal;font-variant:normal;font-weight:normal;font-stretch:normal;font-size:3.17499995px;font-family:'Helvetica Condensed';-inkscape-font-specification:'Helvetica Condensed';font-variant-ligatures:normal;font-variant-caps:normal;font-variant-numeric:normal;text-align:start;letter-spacing:0px;word-spacing:0px;writing-mode:lr-tb;text-anchor:start;fill:#808080;fill-opacity:1;stroke:none;stroke-width:0.26458332px;stroke-linecap:butt;stroke-linejoin:miter;stroke-opacity:1"
         x="49.639622"
         y="84.67115"
         id="text2184-2-3"><tspan
           sodipodi:role="line"
           id="tspan2182-6-7"
           x="49.639622"
           y="84.67115"
           style="font-size:3.17499995px;fill:#808080;fill-opacity:1;stroke-width:0.26458332px">Avaliação</tspan></text>
      <path
         inkscape:connector-curvature="0"
         id="path815-8"
         d="M 26.110344,92.39653 H 120.98237"
         style="fill:none;fill-rule:evenodd;stroke:#000000;stroke-width:0.26499999;stroke-linecap:butt;stroke-linejoin:miter;stroke-miterlimit:4;stroke-dasharray:none;stroke-opacity:1;marker-end:url(#marker6032)" />
      <path
         transform="translate(0,14.780004)"
         inkscape:original-d="M 65.585131,77.664361 H 117.12255"
         inkscape:path-effect="#path-effect2385"
         sodipodi:nodetypes="cc"
         inkscape:connector-curvature="0"
         id="path2331"
         d="m 65.585131,78.322161 0.37698,-1.359208 0.38909,1.402815 m 0,-0.04361 0.37698,-1.359208 0.38909,1.402815 m 0,-0.04361 0.37698,-1.359208 0.38909,1.402815 m 0,-0.04361 0.37698,-1.359208 0.38909,1.402815 m 0,-0.04361 0.37698,-1.359208 0.38909,1.402815 m 0,-0.04361 0.37698,-1.359208 0.38909,1.402815 m 0,-0.04361 0.37698,-1.359208 c 0.129697,0.467606 0.259393,0.93521 0.38909,1.402815 m 0,-0.04361 c 0.12566,-0.453069 0.25132,-0.906138 0.37698,-1.359208 l 0.38909,1.402815 m 0,-0.04361 0.37698,-1.359208 0.38909,1.402816 m 0,-0.04361 c 0.12566,-0.45307 0.25132,-0.906139 0.37698,-1.359209 0.129697,0.467606 0.259393,0.93521 0.38909,1.402815 m 0,-0.04361 0.37698,-1.359208 0.38909,1.402815 m 0,-0.04361 0.37698,-1.359207 0.38909,1.402814 m 0,-0.04361 c 0.12566,-0.453069 0.25132,-0.906138 0.37698,-1.359208 0.129697,0.467606 0.259393,0.93521 0.38909,1.402815 m 0,-0.04361 0.37698,-1.359208 0.38909,1.402815 m 0,-0.04361 0.37698,-1.359208 0.38909,1.402815 m 0,-0.04361 c 0.12566,-0.453069 0.25132,-0.906138 0.37698,-1.359208 0.129697,0.467606 0.259393,0.93521 0.38909,1.402815 m 0,-0.04361 0.37698,-1.359208 c 0.129697,0.467606 0.259393,0.93521 0.38909,1.402815 m 0,-0.04361 c 0.12566,-0.453069 0.25132,-0.906138 0.37698,-1.359208 l 0.38909,1.402816 m 0,-0.04361 c 0.12566,-0.453069 0.25132,-0.906138 0.37698,-1.359208 l 0.38909,1.402815 m 0,-0.04361 0.37698,-1.359208 c 0.129697,0.467606 0.259393,0.93521 0.38909,1.402815 m 0,-0.04361 c 0.12566,-0.453069 0.25132,-0.906138 0.37698,-1.359208 l 0.38909,1.402816 m 0,-0.04361 c 0.12566,-0.453069 0.25132,-0.906138 0.37698,-1.359208 l 0.38909,1.402815 m 0,-0.04361 0.37698,-1.359208 c 0.129697,0.467606 0.259393,0.93521 0.38909,1.402815 m 0,-0.04361 c 0.12566,-0.453069 0.25132,-0.906138 0.37698,-1.359208 l 0.38909,1.402816 m 0,-0.04361 c 0.12566,-0.453069 0.25132,-0.906138 0.37698,-1.359208 l 0.38909,1.402815 m 0,-0.04361 0.37698,-1.359208 c 0.129697,0.467606 0.259393,0.93521 0.38909,1.402815 m 0,-0.04361 c 0.12566,-0.453069 0.25132,-0.906138 0.37698,-1.359208 l 0.38909,1.402816 m 0,-0.04361 c 0.12566,-0.453069 0.25132,-0.906138 0.37698,-1.359208 l 0.38909,1.402815 m 0,-0.04361 0.37698,-1.359208 c 0.129697,0.467606 0.259393,0.93521 0.38909,1.402815 m 0,-0.04361 c 0.12566,-0.453069 0.25132,-0.906138 0.37698,-1.359208 l 0.38909,1.402816 m 0,-0.04361 c 0.12566,-0.453069 0.25132,-0.906138 0.37698,-1.359208 l 0.38909,1.402815 m 0,-0.04361 0.37698,-1.359208 c 0.129697,0.467606 0.259393,0.93521 0.38909,1.402815 m 0,-0.04361 c 0.12566,-0.453069 0.25132,-0.906138 0.37698,-1.359208 l 0.38909,1.402816 m 0,-0.04361 c 0.12566,-0.453069 0.25132,-0.906138 0.37698,-1.359208 l 0.38909,1.402815 m 0,-0.04361 0.37698,-1.359208 0.38909,1.402815 m 0,-0.04361 0.37698,-1.359208 0.38909,1.402815 m 0,-0.04361 0.37698,-1.359208 0.38909,1.402815 m 0,-0.04361 0.37698,-1.359208 0.38909,1.402815 m 0,-0.04361 0.37698,-1.359208 0.38909,1.402815 m 0,-0.04361 0.37698,-1.359208 0.38909,1.402815 m 0,-0.04361 0.37698,-1.359208 0.38909,1.402815 m 0,-0.04361 0.37698,-1.359208 0.38909,1.402815 m 0,-0.04361 0.37698,-1.359208 0.38909,1.402815 m 0,-0.04361 0.37698,-1.359208 0.38909,1.402815 m 0,-0.04361 0.37698,-1.359208 0.389089,1.402815 m 0,-0.04361 0.37698,-1.359208 0.38909,1.402815 m 0,-0.04361 0.37698,-1.359208 0.38909,1.402815 m 0,-0.04361 0.37698,-1.359208 0.38909,1.402815 m 0,-0.04361 0.37698,-1.359208 0.38909,1.402815 m 0,-0.04361 0.37698,-1.359208 0.38909,1.402815 m 0,-0.04361 0.37698,-1.359208 0.38909,1.402815 m 0,-0.04361 0.37698,-1.359208 0.38909,1.402815 m 0,-0.04361 0.37698,-1.359208 0.38909,1.402815 m 0,-0.04361 0.37698,-1.359208 0.38909,1.402815 m 0,-0.04361 0.37698,-1.359208 0.38909,1.402815 m 0,-0.04361 0.37698,-1.359208 0.38909,1.402815 m 0,-0.04361 0.37698,-1.359208 0.38909,1.402815 m 0,-0.04361 0.37698,-1.359208 0.38909,1.402815 m 0,-0.04361 0.37698,-1.359208 0.38909,1.402815 m 0,-0.04361 0.37698,-1.359208 0.38909,1.402815 m 0,-0.04361 0.37698,-1.359208 0.38909,1.402815 m 0,-0.04361 0.37698,-1.359208 0.38909,1.402815 m 0,-0.04361 0.37698,-1.359208 0.38909,1.402815 m 0,-0.04361 0.37698,-1.359208 0.38909,1.402815 m 0,-0.04361 0.37698,-1.359208 0.38909,1.402815 m 0,-0.04361 0.37698,-1.359208 0.38909,1.402815 m 0,-0.04361 0.37698,-1.359208 0.38909,1.402815"
         style="fill:none;fill-rule:evenodd;stroke:#ff0000;stroke-width:0.16500001;stroke-linecap:butt;stroke-linejoin:miter;stroke-miterlimit:4;stroke-dasharray:none;stroke-opacity:1" />
      <text
         id="text2184-0-0"
         y="89.702942"
         x="22.19433"
         style="font-style:normal;font-variant:normal;font-weight:normal;font-stretch:normal;font-size:4.23333311px;font-family:'Helvetica Condensed';-inkscape-font-specification:'Helvetica Condensed';font-variant-ligatures:normal;font-variant-caps:normal;font-variant-numeric:normal;text-align:end;letter-spacing:0px;word-spacing:0px;writing-mode:lr-tb;text-anchor:end;fill:#000000;fill-opacity:1;stroke:none;stroke-width:0.26458332px;stroke-linecap:butt;stroke-linejoin:miter;stroke-opacity:1"
         xml:space="preserve"><tspan
           style="font-style:normal;font-variant:normal;font-weight:normal;font-stretch:normal;font-size:4.23333311px;font-family:'Helvetica Condensed';-inkscape-font-specification:'Helvetica Condensed';text-align:end;text-anchor:end;stroke-width:0.26458332px"
           y="89.702942"
           x="22.19433"
           sodipodi:role="line"
           id="tspan6404-1">Censura</tspan><tspan
           style="font-style:normal;font-variant:normal;font-weight:normal;font-stretch:normal;font-size:4.23333311px;font-family:'Helvetica Condensed';-inkscape-font-specification:'Helvetica Condensed';text-align:end;text-anchor:end;stroke-width:0.26458332px"
           y="95.061081"
           x="22.19433"
           sodipodi:role="line"
           id="tspan6449">à direita</tspan></text>
      <path
         sodipodi:nodetypes="cc"
         inkscape:connector-curvature="0"
         id="path1804-7"
         d="m 64.903777,86.130299 v 4.677216"
         style="fill:#ff0000;fill-rule:evenodd;stroke:#ff0000;stroke-width:0.26499999;stroke-linecap:butt;stroke-linejoin:miter;stroke-miterlimit:4;stroke-dasharray:none;stroke-opacity:1;marker-end:url(#Arrow1Mend-3)" />
    </g>
    <g
       id="g8233"
       transform="translate(0,7.1358857e-6)">
      <path
         inkscape:connector-curvature="0"
         id="path2383"
         d="m 119.91877,41.23493 0.37698,-1.359208 0.38909,1.402815"
         style="fill:#ffffff;fill-rule:evenodd;stroke:#ffffff;stroke-width:0.0800041px;stroke-linecap:butt;stroke-linejoin:miter;stroke-opacity:1" />
      <path
         style="fill:#808080;stroke:#808080;stroke-width:0.00943557"
         inkscape:connector-curvature="0"
         d="m 67.812308,45.580405 c -0.511691,-0.998378 -1.524694,-1.67387 -2.684608,-1.67387 -1.159915,0 -2.1732,0.675964 -2.684608,1.673964 a 0.30524063,0.30524063 0 0 0 0,0.275424 c 0.511691,0.998378 1.524693,1.67387 2.684608,1.67387 1.159914,0 2.1732,-0.675964 2.684608,-1.673964 a 0.30524063,0.30524063 0 0 0 0,-0.275424 z M 65.1277,47.076886 a 1.3587218,1.3587218 0 1 1 1.358722,-1.358722 1.3580613,1.3580613 0 0 1 -1.358722,1.358722 z m 0,-2.264536 a 0.89930402,0.89930402 0 0 0 -0.238814,0.03576 0.45149193,0.45149193 0 0 1 -0.63124,0.63124 0.90373876,0.90373876 0 1 0 0.870054,-0.667 z"
         id="path1776" />
      <path
         inkscape:connector-curvature="0"
         id="path1802"
         d="M 30.609828,45.768691 111.94585,45.667637"
         style="fill:#808080;fill-rule:evenodd;stroke:#808080;stroke-width:0.15000001;stroke-linecap:butt;stroke-linejoin:miter;stroke-miterlimit:4;stroke-dasharray:none;stroke-dashoffset:0;stroke-opacity:1" />
      <path
         sodipodi:nodetypes="cc"
         inkscape:connector-curvature="0"
         id="path1804"
         d="M 65.213764,58.772576 V 55.541167"
         style="fill:#ff0000;fill-rule:evenodd;stroke:#ff0000;stroke-width:0.26499999;stroke-linecap:butt;stroke-linejoin:miter;stroke-miterlimit:4;stroke-dasharray:none;stroke-opacity:1;marker-end:url(#Arrow1Mend)" />
      <text
         xml:space="preserve"
         style="font-style:normal;font-variant:normal;font-weight:normal;font-stretch:normal;font-size:3.52777767px;font-family:'Helvetica Condensed';-inkscape-font-specification:'Helvetica Condensed';font-variant-ligatures:normal;font-variant-caps:normal;font-variant-numeric:normal;text-align:start;letter-spacing:0px;word-spacing:0px;writing-mode:lr-tb;text-anchor:start;fill:#000000;fill-opacity:1;stroke:none;stroke-width:0.26458332px;stroke-linecap:butt;stroke-linejoin:miter;stroke-opacity:1"
         x="47.535259"
         y="62.643429"
         id="text2184"><tspan
           sodipodi:role="line"
           id="tspan2182"
           x="47.535259"
           y="62.643429"
           style="font-style:normal;font-variant:normal;font-weight:normal;font-stretch:normal;font-size:3.52777767px;font-family:'Helvetica Condensed';-inkscape-font-specification:'Helvetica Condensed';stroke-width:0.26458332px">Instante do desfecho, na avaliação.</tspan></text>
      <text
         xml:space="preserve"
         style="font-style:normal;font-variant:normal;font-weight:normal;font-stretch:normal;font-size:3.17499995px;font-family:'Helvetica Condensed';-inkscape-font-specification:'Helvetica Condensed';font-variant-ligatures:normal;font-variant-caps:normal;font-variant-numeric:normal;text-align:start;letter-spacing:0px;word-spacing:0px;writing-mode:lr-tb;text-anchor:start;fill:#808080;fill-opacity:1;stroke:none;stroke-width:0.26458332px;stroke-linecap:butt;stroke-linejoin:miter;stroke-opacity:1"
         x="26.314983"
         y="43.276688"
         id="text2184-2"><tspan
           sodipodi:role="line"
           id="tspan2182-6"
           x="26.314983"
           y="43.276688"
           style="font-size:3.17499995px;fill:#808080;fill-opacity:1;stroke-width:0.26458332px">Monitoramento contínuo</tspan></text>
      <path
         inkscape:connector-curvature="0"
         id="path815"
         d="M 26.110344,53.526626 H 120.98237"
         style="fill:none;fill-rule:evenodd;stroke:#000000;stroke-width:0.26499999;stroke-linecap:butt;stroke-linejoin:miter;stroke-miterlimit:4;stroke-dasharray:none;stroke-opacity:1;marker-end:url(#marker6338)" />
      <text
         xml:space="preserve"
         style="font-style:normal;font-variant:normal;font-weight:normal;font-stretch:normal;font-size:2.82222223px;font-family:'Helvetica Condensed';-inkscape-font-specification:'Helvetica Condensed';font-variant-ligatures:normal;font-variant-caps:normal;font-variant-numeric:normal;text-align:start;letter-spacing:0px;word-spacing:0px;writing-mode:lr-tb;text-anchor:start;fill:#000000;fill-opacity:1;stroke:none;stroke-width:0.26458332px;stroke-linecap:butt;stroke-linejoin:miter;stroke-opacity:1"
         x="111.65601"
         y="56.694824"
         id="text2184-4"><tspan
           sodipodi:role="line"
           id="tspan2182-5"
           x="111.65601"
           y="56.694824"
           style="font-size:2.82222223px;stroke-width:0.26458332px">Tempo</tspan></text>
      <text
         id="text2184-0"
         y="49.439838"
         x="22.19433"
         style="font-style:normal;font-variant:normal;font-weight:normal;font-stretch:normal;font-size:4.23333311px;font-family:'Helvetica Condensed';-inkscape-font-specification:'Helvetica Condensed';font-variant-ligatures:normal;font-variant-caps:normal;font-variant-numeric:normal;text-align:end;letter-spacing:0px;word-spacing:0px;writing-mode:lr-tb;text-anchor:end;fill:#000000;fill-opacity:1;stroke:none;stroke-width:0.26458332px;stroke-linecap:butt;stroke-linejoin:miter;stroke-opacity:1"
         xml:space="preserve"><tspan
           style="font-size:4.23333311px;text-align:end;text-anchor:end;stroke-width:0.26458332px"
           y="49.439838"
           x="22.19433"
           id="tspan2182-05"
           sodipodi:role="line">Não há</tspan><tspan
           style="font-size:4.23333311px;text-align:end;text-anchor:end;stroke-width:0.26458332px"
           y="54.797981"
           x="22.19433"
           sodipodi:role="line"
           id="tspan6404">censura</tspan></text>
      <circle
         r="0.84189898"
         cy="53.460022"
         cx="65.239891"
         id="path2308"
         style="opacity:1;vector-effect:none;fill:#ff0000;fill-opacity:1;stroke:#ff0000;stroke-width:0.26499999;stroke-linecap:butt;stroke-linejoin:miter;stroke-miterlimit:4;stroke-dasharray:none;stroke-dashoffset:0;stroke-opacity:1" />
      <path
         sodipodi:nodetypes="cc"
         inkscape:connector-curvature="0"
         id="path1804-6"
         d="m 65.213764,48.341008 v 3.165263"
         style="fill:#ff0000;fill-rule:evenodd;stroke:#ff0000;stroke-width:0.26499999;stroke-linecap:butt;stroke-linejoin:miter;stroke-miterlimit:4;stroke-dasharray:none;stroke-opacity:1;marker-end:url(#Arrow1Mend-9)" />
    </g>
    <g
       id="g8190"
       transform="translate(0,-4.8570274)">
      <path
         style="fill:#808080;stroke:#808080;stroke-width:0.00943557"
         inkscape:connector-curvature="0"
         d="m 80.286472,105.80733 c -0.511691,-0.99838 -1.524693,-1.67388 -2.684608,-1.67388 -1.159915,0 -2.1732,0.67597 -2.684608,1.67398 a 0.30524064,0.30524064 0 0 0 0,0.27542 c 0.511691,0.99839 1.524693,1.67388 2.684608,1.67388 1.159915,0 2.1732,-0.67596 2.684608,-1.67397 a 0.30524064,0.30524064 0 0 0 0,-0.27543 z m -2.684608,1.49649 a 1.3587218,1.3587218 0 1 1 1.358723,-1.35873 1.3580613,1.3580613 0 0 1 -1.358723,1.35873 z m 0,-2.26455 a 0.89930404,0.89930404 0 0 0 -0.238813,0.0358 0.45149193,0.45149193 0 0 1 -0.63124,0.63125 0.90373877,0.90373877 0 1 0 0.870053,-0.66701 z"
         id="path1776-9-6" />
      <text
         xml:space="preserve"
         style="font-style:normal;font-variant:normal;font-weight:normal;font-stretch:normal;font-size:3.52777767px;font-family:'Helvetica Condensed';-inkscape-font-specification:'Helvetica Condensed';font-variant-ligatures:normal;font-variant-caps:normal;font-variant-numeric:normal;text-align:start;letter-spacing:0px;word-spacing:0px;writing-mode:lr-tb;text-anchor:start;fill:#000000;fill-opacity:1;stroke:none;stroke-width:0.26458332px;stroke-linecap:butt;stroke-linejoin:miter;stroke-opacity:1"
         x="32.238697"
         y="119.87078"
         id="text2184-1-1"><tspan
           sodipodi:role="line"
           id="tspan2182-0-2"
           x="32.238697"
           y="119.87078"
           style="font-size:3.52777767px;stroke-width:0.26458332px">Desfecho ocorreu à esquerda, antes da avaliação.</tspan></text>
      <text
         xml:space="preserve"
         style="font-style:normal;font-variant:normal;font-weight:normal;font-stretch:normal;font-size:3.17499995px;font-family:'Helvetica Condensed';-inkscape-font-specification:'Helvetica Condensed';font-variant-ligatures:normal;font-variant-caps:normal;font-variant-numeric:normal;text-align:start;letter-spacing:0px;word-spacing:0px;writing-mode:lr-tb;text-anchor:start;fill:#808080;fill-opacity:1;stroke:none;stroke-width:0.26458332px;stroke-linecap:butt;stroke-linejoin:miter;stroke-opacity:1"
         x="62.207333"
         y="106.89616"
         id="text2184-2-3-9"><tspan
           sodipodi:role="line"
           id="tspan2182-6-7-3"
           x="62.207333"
           y="106.89616"
           style="font-size:3.17499995px;fill:#808080;fill-opacity:1;stroke-width:0.26458332px">Avaliação</tspan></text>
      <path
         inkscape:connector-curvature="0"
         id="path815-8-1"
         d="M 26.110344,114.62162 H 120.98237"
         style="fill:none;fill-rule:evenodd;stroke:#000000;stroke-width:0.26499999;stroke-linecap:butt;stroke-linejoin:miter;stroke-miterlimit:4;stroke-dasharray:none;stroke-opacity:1;marker-end:url(#marker6032-7)" />
      <path
         transform="translate(-39.555208,37.005016)"
         inkscape:original-d="M 65.585131,77.664361 H 117.12255"
         inkscape:path-effect="#path-effect2385-9"
         sodipodi:nodetypes="cc"
         inkscape:connector-curvature="0"
         id="path2331-9"
         d="m 65.585131,78.322161 0.37698,-1.359208 0.38909,1.402815 m 0,-0.04361 0.37698,-1.359208 0.38909,1.402815 m 0,-0.04361 0.37698,-1.359208 0.38909,1.402815 m 0,-0.04361 0.37698,-1.359208 0.38909,1.402815 m 0,-0.04361 0.37698,-1.359208 0.38909,1.402815 m 0,-0.04361 0.37698,-1.359208 0.38909,1.402815 m 0,-0.04361 0.37698,-1.359208 c 0.129697,0.467606 0.259393,0.93521 0.38909,1.402815 m 0,-0.04361 c 0.12566,-0.453069 0.25132,-0.906138 0.37698,-1.359208 l 0.38909,1.402815 m 0,-0.04361 0.37698,-1.359208 0.38909,1.402816 m 0,-0.04361 c 0.12566,-0.45307 0.25132,-0.906139 0.37698,-1.359209 0.129697,0.467606 0.259393,0.93521 0.38909,1.402815 m 0,-0.04361 0.37698,-1.359208 0.38909,1.402815 m 0,-0.04361 0.37698,-1.359207 0.38909,1.402814 m 0,-0.04361 c 0.12566,-0.453069 0.25132,-0.906138 0.37698,-1.359208 0.129697,0.467606 0.259393,0.93521 0.38909,1.402815 m 0,-0.04361 0.37698,-1.359208 0.38909,1.402815 m 0,-0.04361 0.37698,-1.359208 0.38909,1.402815 m 0,-0.04361 c 0.12566,-0.453069 0.25132,-0.906138 0.37698,-1.359208 0.129697,0.467606 0.259393,0.93521 0.38909,1.402815 m 0,-0.04361 0.37698,-1.359208 c 0.129697,0.467606 0.259393,0.93521 0.38909,1.402815 m 0,-0.04361 c 0.12566,-0.453069 0.25132,-0.906138 0.37698,-1.359208 l 0.38909,1.402816 m 0,-0.04361 c 0.12566,-0.453069 0.25132,-0.906138 0.37698,-1.359208 l 0.38909,1.402815 m 0,-0.04361 0.37698,-1.359208 c 0.129697,0.467606 0.259393,0.93521 0.38909,1.402815 m 0,-0.04361 c 0.12566,-0.453069 0.25132,-0.906138 0.37698,-1.359208 l 0.38909,1.402816 m 0,-0.04361 c 0.12566,-0.453069 0.25132,-0.906138 0.37698,-1.359208 l 0.38909,1.402815 m 0,-0.04361 0.37698,-1.359208 c 0.129697,0.467606 0.259393,0.93521 0.38909,1.402815 m 0,-0.04361 c 0.12566,-0.453069 0.25132,-0.906138 0.37698,-1.359208 l 0.38909,1.402816 m 0,-0.04361 c 0.12566,-0.453069 0.25132,-0.906138 0.37698,-1.359208 l 0.38909,1.402815 m 0,-0.04361 0.37698,-1.359208 c 0.129697,0.467606 0.259393,0.93521 0.38909,1.402815 m 0,-0.04361 c 0.12566,-0.453069 0.25132,-0.906138 0.37698,-1.359208 l 0.38909,1.402816 m 0,-0.04361 c 0.12566,-0.453069 0.25132,-0.906138 0.37698,-1.359208 l 0.38909,1.402815 m 0,-0.04361 0.37698,-1.359208 c 0.129697,0.467606 0.259393,0.93521 0.38909,1.402815 m 0,-0.04361 c 0.12566,-0.453069 0.25132,-0.906138 0.37698,-1.359208 l 0.38909,1.402816 m 0,-0.04361 c 0.12566,-0.453069 0.25132,-0.906138 0.37698,-1.359208 l 0.38909,1.402815 m 0,-0.04361 0.37698,-1.359208 c 0.129697,0.467606 0.259393,0.93521 0.38909,1.402815 m 0,-0.04361 c 0.12566,-0.453069 0.25132,-0.906138 0.37698,-1.359208 l 0.38909,1.402816 m 0,-0.04361 c 0.12566,-0.453069 0.25132,-0.906138 0.37698,-1.359208 l 0.38909,1.402815 m 0,-0.04361 0.37698,-1.359208 0.38909,1.402815 m 0,-0.04361 0.37698,-1.359208 0.38909,1.402815 m 0,-0.04361 0.37698,-1.359208 0.38909,1.402815 m 0,-0.04361 0.37698,-1.359208 0.38909,1.402815 m 0,-0.04361 0.37698,-1.359208 0.38909,1.402815 m 0,-0.04361 0.37698,-1.359208 0.38909,1.402815 m 0,-0.04361 0.37698,-1.359208 0.38909,1.402815 m 0,-0.04361 0.37698,-1.359208 0.38909,1.402815 m 0,-0.04361 0.37698,-1.359208 0.38909,1.402815 m 0,-0.04361 0.37698,-1.359208 0.38909,1.402815 m 0,-0.04361 0.37698,-1.359208 0.389089,1.402815 m 0,-0.04361 0.37698,-1.359208 0.38909,1.402815 m 0,-0.04361 0.37698,-1.359208 0.38909,1.402815 m 0,-0.04361 0.37698,-1.359208 0.38909,1.402815 m 0,-0.04361 0.37698,-1.359208 0.38909,1.402815 m 0,-0.04361 0.37698,-1.359208 0.38909,1.402815 m 0,-0.04361 0.37698,-1.359208 0.38909,1.402815 m 0,-0.04361 0.37698,-1.359208 0.38909,1.402815 m 0,-0.04361 0.37698,-1.359208 0.38909,1.402815 m 0,-0.04361 0.37698,-1.359208 0.38909,1.402815 m 0,-0.04361 0.37698,-1.359208 0.38909,1.402815 m 0,-0.04361 0.37698,-1.359208 0.38909,1.402815 m 0,-0.04361 0.37698,-1.359208 0.38909,1.402815 m 0,-0.04361 0.37698,-1.359208 0.38909,1.402815 m 0,-0.04361 0.37698,-1.359208 0.38909,1.402815 m 0,-0.04361 0.37698,-1.359208 0.38909,1.402815 m 0,-0.04361 0.37698,-1.359208 0.38909,1.402815 m 0,-0.04361 0.37698,-1.359208 0.38909,1.402815 m 0,-0.04361 0.37698,-1.359208 0.38909,1.402815 m 0,-0.04361 0.37698,-1.359208 0.38909,1.402815 m 0,-0.04361 0.37698,-1.359208 0.38909,1.402815 m 0,-0.04361 0.37698,-1.359208 0.38909,1.402815 m 0,-0.04361 0.37698,-1.359208 0.38909,1.402815"
         style="fill:none;fill-rule:evenodd;stroke:#ff0000;stroke-width:0.16500001;stroke-linecap:butt;stroke-linejoin:miter;stroke-miterlimit:4;stroke-dasharray:none;stroke-opacity:1" />
      <text
         id="text2184-0-0-4"
         y="111.92793"
         x="22.19433"
         style="font-style:normal;font-variant:normal;font-weight:normal;font-stretch:normal;font-size:4.23333311px;font-family:'Helvetica Condensed';-inkscape-font-specification:'Helvetica Condensed';font-variant-ligatures:normal;font-variant-caps:normal;font-variant-numeric:normal;text-align:end;letter-spacing:0px;word-spacing:0px;writing-mode:lr-tb;text-anchor:end;fill:#000000;fill-opacity:1;stroke:none;stroke-width:0.26458332px;stroke-linecap:butt;stroke-linejoin:miter;stroke-opacity:1"
         xml:space="preserve"><tspan
           style="font-style:normal;font-variant:normal;font-weight:normal;font-stretch:normal;font-size:4.23333311px;font-family:'Helvetica Condensed';-inkscape-font-specification:'Helvetica Condensed';text-align:end;text-anchor:end;stroke-width:0.26458332px"
           y="111.92793"
           x="22.19433"
           sodipodi:role="line"
           id="tspan6404-1-7">Censura</tspan><tspan
           style="font-style:normal;font-variant:normal;font-weight:normal;font-stretch:normal;font-size:4.23333311px;font-family:'Helvetica Condensed';-inkscape-font-specification:'Helvetica Condensed';text-align:end;text-anchor:end;stroke-width:0.26458332px"
           y="117.28607"
           x="22.19433"
           sodipodi:role="line"
           id="tspan6449-8">à esquerda</tspan></text>
      <path
         sodipodi:nodetypes="cc"
         inkscape:connector-curvature="0"
         id="path1804-7-4"
         d="m 77.471485,108.35536 v 4.67724"
         style="fill:#ff0000;fill-rule:evenodd;stroke:#ff0000;stroke-width:0.26499999;stroke-linecap:butt;stroke-linejoin:miter;stroke-miterlimit:4;stroke-dasharray:none;stroke-opacity:1;marker-end:url(#Arrow1Mend-3-2)" />
    </g>
    <g
       id="g8171">
      <path
         style="fill:#808080;stroke:#808080;stroke-width:0.00943557"
         inkscape:connector-curvature="0"
         d="m 80.286472,127.13544 c -0.511691,-0.99838 -1.524693,-1.67388 -2.684608,-1.67388 -1.159915,0 -2.1732,0.67597 -2.684608,1.67398 a 0.30524064,0.30524064 0 0 0 0,0.27542 c 0.511691,0.99839 1.524693,1.67388 2.684608,1.67388 1.159915,0 2.1732,-0.67596 2.684608,-1.67397 a 0.30524064,0.30524064 0 0 0 0,-0.27543 z m -2.684608,1.49649 a 1.3587218,1.3587218 0 1 1 1.358723,-1.35873 1.3580613,1.3580613 0 0 1 -1.358723,1.35873 z m 0,-2.26455 a 0.89930404,0.89930404 0 0 0 -0.238813,0.0358 0.45149193,0.45149193 0 0 1 -0.63124,0.63125 0.90373877,0.90373877 0 1 0 0.870053,-0.66701 z"
         id="path1776-9-6-0" />
      <text
         xml:space="preserve"
         style="font-style:normal;font-variant:normal;font-weight:normal;font-stretch:normal;font-size:3.52777767px;font-family:'Helvetica Condensed';-inkscape-font-specification:'Helvetica Condensed';font-variant-ligatures:normal;font-variant-caps:normal;font-variant-numeric:normal;text-align:start;letter-spacing:0px;word-spacing:0px;writing-mode:lr-tb;text-anchor:start;fill:#000000;fill-opacity:1;stroke:none;stroke-width:0.26458332px;stroke-linecap:butt;stroke-linejoin:miter;stroke-opacity:1"
         x="32.238697"
         y="141.19888"
         id="text2184-1-1-6"><tspan
           sodipodi:role="line"
           id="tspan2182-0-2-3"
           x="32.238697"
           y="141.19888"
           style="font-size:3.52777767px;stroke-width:0.26458332px">Desfecho ocorreu entre as avaliações.</tspan></text>
      <text
         xml:space="preserve"
         style="font-style:normal;font-variant:normal;font-weight:normal;font-stretch:normal;font-size:3.17499995px;font-family:'Helvetica Condensed';-inkscape-font-specification:'Helvetica Condensed';font-variant-ligatures:normal;font-variant-caps:normal;font-variant-numeric:normal;text-align:start;letter-spacing:0px;word-spacing:0px;writing-mode:lr-tb;text-anchor:start;fill:#808080;fill-opacity:1;stroke:none;stroke-width:0.26458332px;stroke-linecap:butt;stroke-linejoin:miter;stroke-opacity:1"
         x="62.207336"
         y="128.22426"
         id="text2184-2-3-9-2"><tspan
           sodipodi:role="line"
           id="tspan2182-6-7-3-0"
           x="62.207336"
           y="128.22426"
           style="font-size:3.17499995px;fill:#808080;fill-opacity:1;stroke-width:0.26458332px">Avaliação</tspan></text>
      <path
         inkscape:connector-curvature="0"
         id="path815-8-1-6"
         d="M 26.110344,135.94973 H 120.98237"
         style="fill:none;fill-rule:evenodd;stroke:#000000;stroke-width:0.26499999;stroke-linecap:butt;stroke-linejoin:miter;stroke-miterlimit:4;stroke-dasharray:none;stroke-opacity:1;marker-end:url(#marker6032-7-6)" />
      <path
         transform="translate(-39.55521,58.333124)"
         inkscape:original-d="M 92.043464,77.664361 H 117.12255"
         inkscape:path-effect="#path-effect2385-9-3"
         sodipodi:nodetypes="cc"
         inkscape:connector-curvature="0"
         id="path2331-9-1"
         d="m 92.043464,78.322161 0.37698,-1.359208 0.38909,1.402815 m 0,-0.04361 0.37698,-1.359208 0.38909,1.402815 m 0,-0.04361 0.37698,-1.359208 0.38909,1.402815 m 0,-0.04361 0.37698,-1.359208 0.38909,1.402815 m 0,-0.04361 c 0.12566,-0.453069 0.25132,-0.906138 0.37698,-1.359207 0.129697,0.467605 0.259393,0.935209 0.38909,1.402814 m 0,-0.04361 0.37698,-1.359208 0.38909,1.402815 m 0,-0.04361 0.37698,-1.359208 0.38909,1.402815 m 0,-0.04361 c 0.12566,-0.453069 0.25132,-0.906138 0.37698,-1.359208 0.129697,0.467606 0.259393,0.93521 0.38909,1.402815 m 0,-0.04361 c 0.12566,-0.453069 0.25132,-0.906138 0.37698,-1.359208 0.129697,0.467606 0.259393,0.93521 0.38909,1.402815 m 0,-0.04361 c 0.12566,-0.453069 0.25132,-0.906138 0.37698,-1.359208 0.129697,0.467606 0.259393,0.93521 0.38909,1.402815 m 0,-0.04361 c 0.12566,-0.453069 0.25132,-0.906138 0.376976,-1.359208 l 0.38909,1.402815 m 0,-0.04361 c 0.12566,-0.453069 0.25132,-0.906138 0.37698,-1.359208 0.1297,0.467606 0.2594,0.93521 0.38909,1.402816 m 0,-0.04361 c 0.12566,-0.453069 0.25132,-0.906138 0.37698,-1.359208 0.1297,0.467606 0.2594,0.93521 0.38909,1.402816 m 0,-0.04361 c 0.12566,-0.453069 0.25132,-0.906138 0.37698,-1.359208 l 0.38909,1.402815 m 0,-0.04361 c 0.12566,-0.453069 0.25132,-0.906138 0.37698,-1.359208 0.1297,0.467606 0.2594,0.93521 0.38909,1.402815 m 0,-0.04361 c 0.12566,-0.453069 0.25132,-0.906138 0.37698,-1.359208 0.1297,0.467606 0.2594,0.93521 0.38909,1.402815 m 0,-0.04361 c 0.12566,-0.453069 0.25132,-0.906138 0.37698,-1.359208 l 0.38909,1.402815 m 0,-0.04361 0.37698,-1.359208 0.38909,1.402815 m 0,-0.04361 0.37698,-1.359208 0.38909,1.402815 m 0,-0.04361 0.37698,-1.359208 0.38909,1.402815 m 0,-0.04361 0.37698,-1.359208 0.38909,1.402815 m 0,-0.04361 0.37698,-1.359208 0.38909,1.402815 m 0,-0.04361 0.37698,-1.359208 0.38909,1.402815 m 0,-0.04361 0.37698,-1.359208 0.38909,1.402815 m 0,-0.04361 0.37698,-1.359208 0.38909,1.402815 m 0,-0.04361 0.37698,-1.359208 0.38909,1.402815 m 0,-0.04361 0.37698,-1.359208 0.38909,1.402815 m 0,-0.04361 0.37698,-1.359208 0.38909,1.402815 m 0,-0.04361 0.37698,-1.359208 0.38909,1.402815 m 0,-0.04361 0.37698,-1.359208 0.38909,1.402815 m 0,-0.04361 0.37698,-1.359208 0.38909,1.402815 m 0,-0.04361 0.37698,-1.359208 0.38909,1.402815"
         style="fill:none;fill-rule:evenodd;stroke:#ff0000;stroke-width:0.16500001;stroke-linecap:butt;stroke-linejoin:miter;stroke-miterlimit:4;stroke-dasharray:none;stroke-opacity:1" />
      <text
         id="text2184-0-0-4-5"
         y="133.25604"
         x="22.121983"
         style="font-style:normal;font-variant:normal;font-weight:normal;font-stretch:normal;font-size:4.23333311px;font-family:'Helvetica Condensed';-inkscape-font-specification:'Helvetica Condensed';font-variant-ligatures:normal;font-variant-caps:normal;font-variant-numeric:normal;text-align:end;letter-spacing:0px;word-spacing:0px;writing-mode:lr-tb;text-anchor:end;fill:#000000;fill-opacity:1;stroke:none;stroke-width:0.26458332px;stroke-linecap:butt;stroke-linejoin:miter;stroke-opacity:1"
         xml:space="preserve"><tspan
           style="font-style:normal;font-variant:normal;font-weight:normal;font-stretch:normal;font-size:4.23333311px;font-family:'Helvetica Condensed';-inkscape-font-specification:'Helvetica Condensed';text-align:end;text-anchor:end;stroke-width:0.26458332px"
           y="133.25604"
           x="22.121983"
           sodipodi:role="line"
           id="tspan6404-1-7-5">Censura</tspan><tspan
           style="font-style:normal;font-variant:normal;font-weight:normal;font-stretch:normal;font-size:4.23333311px;font-family:'Helvetica Condensed';-inkscape-font-specification:'Helvetica Condensed';text-align:end;text-anchor:end;stroke-width:0.26458332px"
           y="138.61418"
           x="22.121983"
           sodipodi:role="line"
           id="tspan6449-8-4">intervalar</tspan></text>
      <path
         sodipodi:nodetypes="cc"
         inkscape:connector-curvature="0"
         id="path1804-7-4-7"
         d="m 77.471485,129.68347 v 4.67724"
         style="fill:#ff0000;fill-rule:evenodd;stroke:#ff0000;stroke-width:0.26499999;stroke-linecap:butt;stroke-linejoin:miter;stroke-miterlimit:4;stroke-dasharray:none;stroke-opacity:1;marker-end:url(#Arrow1Mend-3-2-5)" />
      <path
         style="fill:#808080;stroke:#808080;stroke-width:0.00943557"
         inkscape:connector-curvature="0"
         d="m 55.680225,127.13544 c -0.511691,-0.99838 -1.524693,-1.67388 -2.684608,-1.67388 -1.159915,0 -2.1732,0.67597 -2.684608,1.67398 a 0.30524064,0.30524064 0 0 0 0,0.27542 c 0.511691,0.99839 1.524693,1.67388 2.684608,1.67388 1.159915,0 2.1732,-0.67596 2.684608,-1.67397 a 0.30524064,0.30524064 0 0 0 0,-0.27543 z m -2.684608,1.49649 a 1.3587218,1.3587218 0 1 1 1.358723,-1.35873 1.3580613,1.3580613 0 0 1 -1.358723,1.35873 z m 0,-2.26455 a 0.89930404,0.89930404 0 0 0 -0.238813,0.0358 0.45149193,0.45149193 0 0 1 -0.63124,0.63125 0.90373877,0.90373877 0 1 0 0.870053,-0.66701 z"
         id="path1776-9-6-0-6" />
      <text
         xml:space="preserve"
         style="font-style:normal;font-variant:normal;font-weight:normal;font-stretch:normal;font-size:3.17499995px;font-family:'Helvetica Condensed';-inkscape-font-specification:'Helvetica Condensed';font-variant-ligatures:normal;font-variant-caps:normal;font-variant-numeric:normal;text-align:start;letter-spacing:0px;word-spacing:0px;writing-mode:lr-tb;text-anchor:start;fill:#808080;fill-opacity:1;stroke:none;stroke-width:0.26458332px;stroke-linecap:butt;stroke-linejoin:miter;stroke-opacity:1"
         x="37.601086"
         y="128.22426"
         id="text2184-2-3-9-2-9"><tspan
           sodipodi:role="line"
           id="tspan2182-6-7-3-0-3"
           x="37.601086"
           y="128.22426"
           style="font-size:3.17499995px;fill:#808080;fill-opacity:1;stroke-width:0.26458332px">Avaliação</tspan></text>
      <path
         sodipodi:nodetypes="cc"
         inkscape:connector-curvature="0"
         id="path1804-7-4-7-7"
         d="m 52.865238,129.68347 v 4.67724"
         style="fill:#ff0000;fill-rule:evenodd;stroke:#ff0000;stroke-width:0.26499999;stroke-linecap:butt;stroke-linejoin:miter;stroke-miterlimit:4;stroke-dasharray:none;stroke-opacity:1;marker-end:url(#Arrow1Mend-3-2-5-6)" />
    </g>
  </g>
</svg>
